<svg xmlns="http://www.w3.org/2000/svg" version="1.1" xmlns:xlink="http://www.w3.org/1999/xlink" xmlns:svgjs="http://svgjs.com/svgjs" width="1440" height="560" preserveAspectRatio="none" viewBox="0 0 1440 560"><g mask="url(&quot;#SvgjsMask1114&quot;)" fill="none"><path d="M -564.5742598250235,378 C -468.57,323 -276.57,120.8 -84.57425982502357,103 C 107.43,85.2 203.43,302.8 395.42574017497645,289 C 587.43,275.2 683.43,34.4 875.4257401749765,34 C 1067.43,33.6 1242.51,255.4 1355.4257401749765,287 C 1468.34,318.6 1423.09,211 1440,192" stroke="rgba(3, 123, 11, 1)" stroke-width="2"></path><path d="M -817.2926484480224,539 C -721.29,451.6 -529.29,105.2 -337.29264844802236,102 C -145.29,98.8 -49.29,531.2 142.70735155197764,523 C 334.71,514.8 430.71,107 622.7073515519776,61 C 814.71,15 939.25,287.8 1102.7073515519776,293 C 1266.17,298.2 1372.54,128.2 1440,87" stroke="rgba(3, 123, 11, 1)" stroke-width="2"></path><path d="M -783.9939863120663,122 C -687.99,161.8 -495.99,309.2 -303.99398631206634,321 C -111.99,332.8 -15.99,184.6 176.00601368793366,181 C 368.01,177.4 464.01,287.6 656.0060136879337,303 C 848.01,318.4 979.21,248 1136.0060136879338,258 C 1292.8,268 1379.2,334 1440,353" stroke="rgba(211, 183, 20, 1)" stroke-width="2"></path><path d="M -714.602650365066,540 C -618.6,448.2 -426.6,91.4 -234.60265036506598,81 C -42.6,70.6 53.4,472.8 245.39734963493402,488 C 437.4,503.2 533.4,151.2 725.397349634934,157 C 917.4,162.8 1062.48,493.8 1205.397349634934,517 C 1348.32,540.2 1393.08,321.8 1440,273" stroke="rgba(50, 152, 253, 1)" stroke-width="2"></path><path d="M -655.8915389675689,399 C -559.89,364 -367.89,206.2 -175.89153896756883,224 C 16.11,241.8 112.11,509.8 304.10846103243114,488 C 496.11,466.2 592.11,120.6 784.1084610324311,115 C 976.11,109.4 1132.93,472.8 1264.1084610324313,460 C 1395.29,447.2 1404.82,132.8 1440,51" stroke="rgba(50, 152, 253, 1)" stroke-width="2"></path></g><defs><mask id="SvgjsMask1114"><rect width="1440" height="560" fill="#ffffff"></rect></mask></defs></svg>