<svg xmlns="http://www.w3.org/2000/svg" version="1.1" xmlns:xlink="http://www.w3.org/1999/xlink"
  xmlns:svgjs="http://svgjs.com/svgjs" width="1440" height="560" preserveAspectRatio="none"
  viewBox="0 0 1440 560">
  <g mask="url(&quot;#SvgjsMask1009&quot;)" fill="none">


    <path
      d="M840 383.48C824.84 383.48 810 403.75 810 420C810 432.64 824.91 441.27 840 441.27C855.46 441.27 871.11 432.71 871.11 420C871.11 403.82 855.39 383.48 840 383.48"
      stroke="rgba(237, 202, 0, 1)" stroke-width="2"></path>
    <path
      d="M0 52.5C14.99 18.76 26.42 13.42 62.22 0C96.42 -12.83 101.11 0 140 0C177.5 0 182.97 -13.88 215 0C252.97 16.46 249.3 60.67 280 60.67C307.43 60.67 298.21 14.33 331.27 0C368.21 -16.01 375.63 0 420 0C458.89 0 467.73 -17.73 497.78 0C537.73 23.58 526.35 43.54 560 82.62C586.62 113.54 618.33 111.19 618.33 140C618.33 169.05 596.75 188.49 560 198.33C497.59 215.04 489.87 191.16 420 193.1C349.87 195.05 349.35 195.38 280 206.11C209.35 217.05 209.83 237.24 140 236.44C69.83 235.64 48.71 236.47 0 202.92C-21.29 188.25 0 171.46 0 140C0 96.25 -16.12 88.76 0 52.5"
      stroke="rgba(225, 74, 74, 1)" stroke-width="2"></path>
    <path
      d="M700 11.05C694.11 11.05 689.23 3.25 689.23 0C689.23 -2.27 694.62 0 700 0C707.78 0 715.56 -2.48 715.56 0C715.56 3.04 707.28 11.05 700 11.05"
      stroke="rgba(158, 191, 9, 1)" stroke-width="2"></path>
    <path
      d="M900 140C916.31 73.94 876.5 45 902.22 0C916.5 -25 941.11 0 980 0C1047.74 0 1088.13 -34.18 1115.48 0C1144.13 35.82 1090.44 71.9 1092 140C1092.7 170.87 1099.99 197.93 1120 197.93C1147.59 197.93 1186.13 176.35 1187.2 140C1189.04 77.38 1106.44 37.28 1125.83 0C1142.84 -32.72 1192.91 0 1260 0C1330 0 1330 0 1400 0C1426.25 0 1452.5 -11.07 1452.5 0C1452.5 15.86 1426.89 27.58 1400 53.85C1355.24 97.58 1309.19 102.73 1309.19 140C1309.19 170.88 1359.4 158.69 1400 190.15C1449.73 228.69 1445.3 234.71 1489.85 280C1515.3 305.88 1528.63 300.76 1540 332.5C1553.7 370.76 1540 376.25 1540 420C1540 490 1568.6 518.6 1540 560C1520.24 588.6 1464.83 588.57 1443.27 560C1412 518.57 1450.52 484.51 1434.34 420C1428.89 398.26 1421.69 395.02 1400 387.5C1334.52 364.79 1327.01 351.2 1260 359.55C1196.55 367.45 1197.2 386.61 1139.09 420C1127.2 426.83 1132.94 436.28 1120 440C1053.39 459.16 1043.63 472.68 980 465.77C951.6 462.68 956.96 443.79 935.93 420C886.96 364.6 891.96 359.01 840 307.39C821.5 289.01 795 293.81 795 280C795 266.11 824.55 272.6 840 252C877.05 202.6 885.2 199.94 900 140"
      stroke="rgba(158, 191, 9, 1)" stroke-width="2"></path>
    <path
      d="M85.31 420C85.31 377.72 103.93 330.26 140 330.26C191.62 330.26 199.87 375.84 260.69 420C269.87 426.66 270.52 431.91 280 431.91C288.66 431.91 288.49 425.96 296.97 420C358.49 376.81 358.49 333.62 420 333.62C481.51 333.62 543.03 381.57 543.03 420C543.03 455.06 473.88 440.63 420 480.6C379.52 510.63 394.99 536.94 354.32 560C324.99 576.64 317.16 560 280 560C240.39 560 231.69 577.58 200.79 560C161.69 537.75 171.85 518.96 140 480.34C114.11 448.96 85.31 452.76 85.31 420"
      stroke="rgba(51, 121, 194, 0.58)" stroke-width="2"></path>
    <path
      d="M584.35 420C601.56 369.65 649.82 350 700 350C731.4 350 717.59 391.04 747.5 420C787.59 458.82 796.49 449.5 840 485.57C880.92 519.5 916.36 538.31 916.36 560C916.36 575.53 878.18 560 840 560C770 560 770 560 700 560C664.11 560 647.21 583 628.21 560C589.38 513 565.67 474.65 584.35 420"
      stroke="rgba(51, 121, 194, 0.58)" stroke-width="2"></path>

    <path
      d="M420 82.35C401.29 82.35 380.56 28.75 380.56 0C380.56 -12.42 400.28 0 420 0C437.28 0 454.57 -11.49 454.57 0C454.57 29.68 438.3 82.35 420 82.35"
      stroke="rgba(51, 121, 194, 0.58)" stroke-width="2"></path>

    <path
      d="M1260 280C1260 259.5 1335.03 242.39 1400 242.39C1423.84 242.39 1437.61 260.36 1437.61 280C1437.61 301.66 1425.32 325 1400 325C1336.51 325 1260 300.8 1260 280"
      stroke="rgba(237, 202, 0, 1)" stroke-width="2"></path>

    <path
      d="M246.84 560C246.84 542.43 263.8 506.38 280 506.38C295.93 506.38 311.11 542.15 311.11 560C311.11 568.96 295.56 560 280 560C263.42 560 246.84 569.24 246.84 560"
      stroke="rgba(51, 121, 194, 0.58)" stroke-width="2"></path>

  </g>
  <defs>
    <mask id="SvgjsMask1009">
      <rect width="1440" height="560" fill="#ffffff"></rect>
    </mask>
  </defs>
</svg>