<svg xmlns="http://www.w3.org/2000/svg" version="1.1" xmlns:xlink="http://www.w3.org/1999/xlink"
  xmlns:svgjs="http://svgjs.com/svgjs" width="1440" height="560" preserveAspectRatio="none"
  viewBox="0 0 1440 560">
  <g mask="url(&quot;#SvgjsMask1013&quot;)" fill="none">

    <path
      d="M1260 371C1243.63 371 1223.02 395.04 1223.02 420C1223.02 446.76 1243.75 474.44 1260 474.44C1274.81 474.44 1285.13 446.96 1285.13 420C1285.13 395.24 1274.68 371 1260 371"
      stroke="rgba(51, 121, 194, 0.58)" stroke-width="2"></path>

    <path
      d="M444.89 140C444.89 109.96 505.01 80.46 560 80.46C601.8 80.46 638.48 110.01 638.48 140C638.48 170.25 601.89 200.94 560 200.94C505.09 200.94 444.89 170.2 444.89 140"
      stroke="rgba(158, 191, 9, 1)" stroke-width="2"></path>
    <path
      d="M700 76.56C660.52 54.48 642.35 23.9 642.35 0C642.35 -14.38 671.17 0 700 0C770 0 770 0 840 0C907.74 0 975.48 -24.13 975.48 0C975.48 31.14 915.52 89.54 840 110.53C777.78 127.82 759.35 109.75 700 76.56"
      stroke="rgba(51, 121, 194, 0.58)" stroke-width="2"></path>

    <path
      d="M779.51 280C779.51 227.74 802.51 166.05 840 166.05C884.88 166.05 944.26 231.29 944.26 280C944.26 317.79 888.3 339.04 840 339.04C805.93 339.04 779.51 314.24 779.51 280"
      stroke="rgba(158, 191, 9, 1)" stroke-width="2"></path>
    <path
      d="M646.67 420C646.67 391.71 674.13 372 700 372C724.13 372 746.67 392.38 746.67 420C746.67 463.05 724.63 513.33 700 513.33C674.63 513.33 646.67 462.38 646.67 420"
      stroke="rgba(51, 121, 194, 0.58)" stroke-width="2"></path>
    <path
      d="M1087.87 420C1087.87 398.39 1103.15 373.33 1120 373.33C1137.71 373.33 1156.98 398.68 1156.98 420C1156.98 437.09 1137.97 450.15 1120 450.15C1103.41 450.15 1087.87 436.8 1087.87 420"
      stroke="rgba(158, 191, 9, 1)" stroke-width="2"></path>
    <path
      d="M0 536.67C60.55 503.94 82.77 476.9 140 484.32C172.77 488.57 180 534.21 180 560C180 572.05 160 560 140 560C70 560 60 570 0 560C-10 558.33 -9.45 541.78 0 536.67"
      stroke="rgba(158, 191, 9, 1)" stroke-width="2"></path>
    <path
      d="M380 560C380 541.84 400 502.86 420 502.86C440 502.86 460 541.84 460 560C460 570.41 440 560 420 560C400 560 380 570.41 380 560"
      stroke="rgba(158, 191, 9, 1)" stroke-width="2"></path>
    <path
      d="M752.5 560C752.5 549.19 799.36 518.82 840 518.82C865.69 518.82 885.16 548.16 885.16 560C885.16 568.75 862.58 560 840 560C796.25 560 752.5 569.78 752.5 560"
      stroke="rgba(225, 74, 74, 1)" stroke-width="2"></path>
    <path
      d="M1482.22 560C1482.22 543.08 1523.08 502.22 1540 502.22C1551.97 502.22 1554.44 545.56 1540 560C1525.56 574.44 1482.22 571.97 1482.22 560"
      stroke="rgba(237, 202, 0, 1)" stroke-width="2"></path>
    <path
      d="M31.82 140C45.2 91.28 93.79 70 140 70C169.51 70 156.83 108.84 183.27 140C226.83 191.34 234.01 185.44 280 235C298.96 255.44 313.16 256.08 313.16 280C313.16 311.74 309.79 338.29 280 346.32C223.21 361.63 204.82 348.42 140 326.67C105.99 315.26 100.34 311.04 82.35 280C46.25 217.71 16.37 196.28 31.82 140"
      stroke="rgba(51, 121, 194, 0.58)" stroke-width="2"></path>
    <path
      d="M522.67 140C522.67 130.26 542.17 120.69 560 120.69C573.56 120.69 585.45 130.27 585.45 140C585.45 149.81 573.58 159.76 560 159.76C542.19 159.76 522.67 149.79 522.67 140"
      stroke="rgba(158, 191, 9, 1)" stroke-width="2"></path>
    <path
      d="M700 21.87C687.21 20.36 683.53 6.83 683.53 0C683.53 -4.11 691.76 0 700 0C770 0 770 0 840 0C851.29 0 862.58 -4.02 862.58 0C862.58 5.19 854 16.54 840 18.42C772.71 27.47 765.44 29.57 700 21.87"
      stroke="rgba(51, 121, 194, 0.58)" stroke-width="2"></path>
    <path
      d="M1260 2.41C1258.97 1.14 1257.78 0.72 1257.78 0C1257.78 -0.49 1258.89 0 1260 0C1330 0 1330 0 1400 0C1421.88 0 1433.7 -16.08 1443.75 0C1477.45 53.92 1457.36 74.23 1487.5 140C1505.48 179.23 1525.42 171.11 1540 210C1551.67 241.11 1540 245 1540 280C1540 288.88 1545.48 291.04 1540 297.75C1488.37 361.04 1483.26 359.23 1425.79 420C1413.26 433.25 1412.81 445.79 1400 445.79C1387.35 445.79 1380.29 436.68 1374.87 420C1353.36 353.79 1347.16 350.19 1346.15 280C1345.14 210.19 1390.04 201.88 1370.83 140C1346.96 63.09 1315.5 71.14 1260 2.41"
      stroke="rgba(158, 191, 9, 1)" stroke-width="2"></path>
    <path
      d="M822.72 280C822.72 265.07 829.29 247.44 840 247.44C852.82 247.44 869.79 266.08 869.79 280C869.79 290.8 853.8 296.87 840 296.87C830.27 296.87 822.72 289.78 822.72 280"
      stroke="rgba(225, 74, 74, 1)" stroke-width="2"></path>
    <path
      d="M1537.78 560C1537.78 559.35 1539.35 557.78 1540 557.78C1540.46 557.78 1540.56 559.44 1540 560C1539.44 560.56 1537.78 560.46 1537.78 560"
      stroke="rgba(237, 202, 0, 1)" stroke-width="2"></path>
  </g>
  <defs>
    <mask id="SvgjsMask1013">
      <rect width="1440" height="560" fill="#ffffff"></rect>
    </mask>
  </defs>
</svg>