<svg width="1920" height="1080" viewBox="0 0 1920 1080" xmlns="http://www.w3.org/2000/svg">
  <path d="M2542.7990524867664,48.999999999999815C2501.688998413719,198.50524690086007,2369.192263470433,381.8230714717117,2292.8730079009492,505.09070726490444C2216.5537523314656,628.3583430580971,2204.0290203866903,794.3942387007638,2084.8835190698655,788.605814759156C1965.7380177530408,782.8173908175482,1718.2754974432164,560.331571479607,1578.0000000000002,470.36016361525765C1437.724502556784,380.38875575090833,1293.8587786754742,361.7552172336518,1243.230534410569,248.77736757306002C1192.6022901456636,135.79951791246822,1220.2689568123303,-76.63699623154395,1274.2305344105687,-207.50693434829307C1328.192112008807,-338.3768724650422,1432.1657335267282,-461.78312790744945,1566.9999999999995,-536.4422611274347C1701.8342664732709,-611.1013943474198,1921.1472445269917,-679.5453148327339,2083.2361332501973,-655.4617336682043C2245.3250219734027,-631.3781525036746,2462.9395124664716,-509.35106308495773,2539.5333323392333,-391.9407741402571C2616.127152211995,-274.5304851955564,2583.9091065598136,-100.50524690086043,2542.7990524867664,48.999999999999815C2501.688998413719,198.50524690086007,2369.192263470433,381.8230714717117,2292.8730079009492,505.09070726490444" fill="#d9c316" />
</svg>