<svg xmlns="http://www.w3.org/2000/svg" version="1.1" xmlns:xlink="http://www.w3.org/1999/xlink" xmlns:svgjs="http://svgjs.com/svgjs" width="1440" height="560" preserveAspectRatio="none" viewBox="0 0 1440 560"><g mask="url(&quot;#SvgjsMask1034&quot;)" fill="none"><path d="M1403.41 363.56L1432.55 363.56L1432.55 392.7L1403.41 392.7z" stroke="rgba(50, 152, 253, 1)"></path><path d="M262.57 76.72a19.29 19.29 0 1 0 15.39 35.38z" stroke="rgba(50, 152, 253, 1)"></path><path d="M192.44 176.37 a48.61 48.61 0 1 0 97.22 0 a48.61 48.61 0 1 0 -97.22 0z" fill="#d3b714"></path><path d="M240.45 510.85 a52.09 52.09 0 1 0 104.18 0 a52.09 52.09 0 1 0 -104.18 0z" stroke="rgba(3, 123, 11, 1)"></path><path d="M298.77 136.96L335.06 136.96L335.06 185.39L298.77 185.39z" stroke="rgba(50, 152, 253, 1)"></path><path d="M87.01 534.7L116.71 534.7L116.71 587.11L87.01 587.11z" stroke="rgba(3, 123, 11, 1)"></path><path d="M343.99 525.42a16.16 16.16 0 1 0-30.84 9.65z" fill="rgba(50, 152, 253, 1)"></path><path d="M592.04 450.32 a46.51 46.51 0 1 0 93.02 0 a46.51 46.51 0 1 0 -93.02 0z" fill="#d3b714"></path><path d="M1040.61 475.19L1071.66 475.19L1071.66 475.86L1040.61 475.86z" stroke="rgba(50, 152, 253, 1)"></path><path d="M185.49 379.03L196.62 379.03L196.62 381L185.49 381z" stroke="#d3b714"></path><path d="M255.75 250.61L274.99 250.61L274.99 257.24L255.75 257.24z" stroke="rgba(50, 152, 253, 1)"></path><path d="M988.32 504.23L1020.14 504.23L1020.14 536.05L988.32 536.05z" fill="rgba(3, 123, 11, 1)"></path><path d="M1001.18 132.95a32.61 32.61 0 1 0 64.98 5.58z" stroke="#d3b714"></path><path d="M25.25 285.65a17.5 17.5 0 1 0 31.06-16.14z" fill="#d3b714"></path><path d="M409.69 425.77L449.66 425.77L449.66 465.74L409.69 465.74z" stroke="rgba(50, 152, 253, 1)"></path><path d="M1158.84 126.84L1212.45 126.84L1212.45 168.78L1158.84 168.78z" stroke="rgba(50, 152, 253, 1)"></path><path d="M866.5 284.17a5.59 5.59 0 1 0-7.93 7.87z" stroke="#d3b714"></path><path d="M1041.37 411.79 a31.36 31.36 0 1 0 62.72 0 a31.36 31.36 0 1 0 -62.72 0z" fill="#d3b714"></path><path d="M739.45 213.33L773.11 213.33L773.11 218.48L739.45 218.48z" fill="rgba(3, 123, 11, 1)"></path><path d="M248.9 134.09L299.66 134.09L299.66 184.85L248.9 184.85z" stroke="#d3b714"></path><path d="M1224.83 319.79a28.95 28.95 0 1 0 55.62-16.1z" fill="rgba(50, 152, 253, 1)"></path><path d="M437.53 524.35a14.78 14.78 0 1 0 28.94 6.06z" fill="#d3b714"></path><path d="M736.46 408.97L783.02 408.97L783.02 455.53L736.46 455.53z" fill="#d3b714"></path><path d="M479.94 5.17 a50.67 50.67 0 1 0 101.34 0 a50.67 50.67 0 1 0 -101.34 0z" fill="#d3b714"></path><path d="M1418.97 182.65L1427.09 182.65L1427.09 190.77L1418.97 190.77z" fill="rgba(3, 123, 11, 1)"></path><path d="M268.2 214.21L313.32 214.21L313.32 230.61L268.2 230.61z" stroke="#d3b714"></path><path d="M122.19 558.72L165.64 558.72L165.64 574.44L122.19 574.44z" fill="rgba(3, 123, 11, 1)"></path><path d="M229.02 285.88L269.26 285.88L269.26 326.12L229.02 326.12z" fill="rgba(50, 152, 253, 1)"></path><path d="M184.51 201.31 a17.54 17.54 0 1 0 35.08 0 a17.54 17.54 0 1 0 -35.08 0z" fill="rgba(50, 152, 253, 1)"></path><path d="M1246.19 536.95a27.23 27.23 0 1 0 45.2 30.38z" stroke="rgba(3, 123, 11, 1)"></path><path d="M1339.35 250.86L1373.54 250.86L1373.54 296.89L1339.35 296.89z" stroke="rgba(3, 123, 11, 1)"></path><path d="M378.24 429.05L408.96 429.05L408.96 459.77L378.24 459.77z" stroke="#d3b714"></path><path d="M914.55 115.67L923.82 115.67L923.82 124.94L914.55 124.94z" fill="rgba(50, 152, 253, 1)"></path></g><defs><mask id="SvgjsMask1034"><rect width="1440" height="560" fill="#ffffff"></rect></mask></defs></svg>