<?xml version="1.0" standalone="no"?><svg xmlns="http://www.w3.org/2000/svg" viewBox="0 0 1440 320"><path fill="#ffd700" fill-opacity="1" d="M0,256L40,256C80,256,160,256,240,234.7C320,213,400,171,480,170.7C560,171,640,213,720,218.7C800,224,880,192,960,170.7C1040,149,1120,139,1200,149.3C1280,160,1360,192,1400,208L1440,224L1440,320L1400,320C1360,320,1280,320,1200,320C1120,320,1040,320,960,320C880,320,800,320,720,320C640,320,560,320,480,320C400,320,320,320,240,320C160,320,80,320,40,320L0,320Z"></path></svg>